<svg version="1.1" xmlns="http://www.w3.org/2000/svg" xmlns:xlink="http://www.w3.org/1999/xlink" preserveAspectRatio="xMidYMid meet" viewBox="0 0 50 50" width="50" height="50"><defs><path d="M50 50L25 0.81L0 50" id="i6e9uszES"></path><path d="M50 12.14L0.68 12.14" id="i2lZZIsGeP"></path><path d="M12.34 26.81L29.68 12.14" id="a1l4VF9KI3"></path><path d="M37.26 26.81L19.93 12.14" id="d1bWPOa79s"></path><path d="M12.34 26.81L37.26 26.81" id="b2LLMRcZs3"></path><path d="M0.68 50L37.26 26.14" id="h1C5u5IASF"></path><path d="M50 50L13.01 26.81" id="c2bLQhY5ic"></path><path d="M9 10.14C9 11.24 8.1 12.14 7 12.14C5.89 12.14 5 11.24 5 10.14C5 9.04 5.89 8.14 7 8.14C8.1 8.14 9 9.04 9 10.14Z" id="aiaTEiaUn"></path><path d="M45 10.14C45 11.24 44.1 12.14 43 12.14C41.89 12.14 41 11.24 41 10.14C41 9.04 41.89 8.14 43 8.14C44.1 8.14 45 9.04 45 10.14Z" id="elLrOhbyn"></path><path d="M26.8 10.14C26.8 11.24 25.91 12.14 24.8 12.14C23.7 12.14 22.8 11.24 22.8 10.14C22.8 9.04 23.7 8.14 24.8 8.14C25.91 8.14 26.8 9.04 26.8 10.14Z" id="blYDuJGos"></path></defs><g><g><g><g><use xlink:href="#i6e9uszES" opacity="1" fill-opacity="0" stroke="#000000" stroke-width="2" stroke-opacity="1"></use></g></g><g><g><use xlink:href="#i2lZZIsGeP" opacity="1" fill-opacity="0" stroke="#000000" stroke-width="2" stroke-opacity="1"></use></g></g><g><g><use xlink:href="#a1l4VF9KI3" opacity="1" fill-opacity="0" stroke="#000000" stroke-width="2" stroke-opacity="1"></use></g></g><g><g><use xlink:href="#d1bWPOa79s" opacity="1" fill-opacity="0" stroke="#000000" stroke-width="2" stroke-opacity="1"></use></g></g><g><g><use xlink:href="#b2LLMRcZs3" opacity="1" fill-opacity="0" stroke="#000000" stroke-width="2" stroke-opacity="1"></use></g></g><g><g><use xlink:href="#h1C5u5IASF" opacity="1" fill-opacity="0" stroke="#000000" stroke-width="2" stroke-opacity="1"></use></g></g><g><g><use xlink:href="#c2bLQhY5ic" opacity="1" fill-opacity="0" stroke="#000000" stroke-width="2" stroke-opacity="1"></use></g></g><g><use xlink:href="#aiaTEiaUn" opacity="1" fill="#000000" fill-opacity="1"></use></g><g><use xlink:href="#elLrOhbyn" opacity="1" fill="#000000" fill-opacity="1"></use></g><g><use xlink:href="#blYDuJGos" opacity="1" fill="#000000" fill-opacity="1"></use></g></g></g></svg>
