<svg version="1.1" xmlns="http://www.w3.org/2000/svg" xmlns:xlink="http://www.w3.org/1999/xlink" preserveAspectRatio="xMidYMid meet" viewBox="0 0 50 50" width="50" height="50"><defs><path d="" id="b1CBH8FjtM"></path><path d="M1 49.27C9.73 47.2 15.18 45.9 17.36 45.38C21.33 44.43 21.2 38.74 17.19 37.99C15.03 37.58 9.63 36.57 1 34.94C9.37 32.64 14.6 31.19 16.69 30.62C21.18 29.38 20.95 22.93 16.38 22.01C14.33 21.6 9.2 20.57 1 18.93C9.74 16.85 15.2 15.55 17.39 15.03C22.15 13.89 22.35 7.2 17.67 5.78C15.44 5.1 9.89 3.42 1 0.73" id="b4tNE6Mus9"></path><path d="M48.44 49.27C39.72 47.2 34.26 45.9 32.08 45.38C28.11 44.43 28.25 38.74 32.26 37.99C34.41 37.58 39.81 36.57 48.44 34.94C40.08 32.64 34.85 31.19 32.75 30.62C28.26 29.38 28.49 22.93 33.06 22.01C35.11 21.6 40.24 20.57 48.44 18.93C39.7 16.85 34.24 15.55 32.06 15.03C27.3 13.89 27.1 7.2 31.78 5.78C34 5.1 39.55 3.42 48.44 0.73" id="c287KUWbPR"></path></defs><g><g><g><g><use xlink:href="#b1CBH8FjtM" opacity="1" fill-opacity="0" stroke="#000000" stroke-width="1" stroke-opacity="1"></use></g></g><g><g><use xlink:href="#b4tNE6Mus9" opacity="1" fill-opacity="0" stroke="#000000" stroke-width="2" stroke-opacity="1"></use></g></g><g><g><use xlink:href="#c287KUWbPR" opacity="1" fill-opacity="0" stroke="#000000" stroke-width="2" stroke-opacity="1"></use></g></g></g></g></svg>
